<mxfile host="65bd71144e" pages="4">
    <diagram id="Z6T3DnKWLvhdPRvYXyMb" name="UI Design">
        <mxGraphModel dx="1728" dy="591" grid="1" gridSize="10" guides="1" tooltips="1" connect="1" arrows="1" fold="1" page="1" pageScale="1" pageWidth="850" pageHeight="1100" math="0" shadow="0">
            <root>
                <mxCell id="0"/>
                <mxCell id="1" parent="0"/>
                <mxCell id="XId45q0S1seHopEYeAWh-126" value="" style="rounded=0;whiteSpace=wrap;html=1;" parent="1" vertex="1">
                    <mxGeometry x="430" y="870" width="360" height="120" as="geometry"/>
                </mxCell>
                <mxCell id="XId45q0S1seHopEYeAWh-1" value="&lt;font style=&quot;font-size: 36px&quot;&gt;UI Design&lt;/font&gt;" style="text;html=1;align=center;verticalAlign=middle;resizable=0;points=[];autosize=1;strokeColor=none;" parent="1" vertex="1">
                    <mxGeometry x="340" y="20" width="170" height="30" as="geometry"/>
                </mxCell>
                <mxCell id="XId45q0S1seHopEYeAWh-3" value="" style="whiteSpace=wrap;html=1;aspect=fixed;" parent="1" vertex="1">
                    <mxGeometry x="40" y="120" width="330" height="330" as="geometry"/>
                </mxCell>
                <mxCell id="XId45q0S1seHopEYeAWh-4" value="" style="rounded=0;whiteSpace=wrap;html=1;" parent="1" vertex="1">
                    <mxGeometry x="40" y="120" width="330" height="30" as="geometry"/>
                </mxCell>
                <mxCell id="XId45q0S1seHopEYeAWh-5" value="post card component (minimized)" style="rounded=1;whiteSpace=wrap;html=1;" parent="1" vertex="1">
                    <mxGeometry x="80" y="160" width="260" height="60" as="geometry"/>
                </mxCell>
                <mxCell id="XId45q0S1seHopEYeAWh-6" value="" style="rounded=1;whiteSpace=wrap;html=1;" parent="1" vertex="1">
                    <mxGeometry x="80" y="230" width="260" height="60" as="geometry"/>
                </mxCell>
                <mxCell id="XId45q0S1seHopEYeAWh-7" value="" style="rounded=1;whiteSpace=wrap;html=1;" parent="1" vertex="1">
                    <mxGeometry x="80" y="300" width="260" height="60" as="geometry"/>
                </mxCell>
                <mxCell id="XId45q0S1seHopEYeAWh-8" value="post card component (minimized)" style="rounded=1;whiteSpace=wrap;html=1;" parent="1" vertex="1">
                    <mxGeometry x="80" y="370" width="260" height="60" as="geometry"/>
                </mxCell>
                <mxCell id="XId45q0S1seHopEYeAWh-9" value="&lt;font style=&quot;font-size: 18px&quot;&gt;Home Page (registered user)&lt;/font&gt;" style="text;html=1;align=center;verticalAlign=middle;resizable=0;points=[];autosize=1;strokeColor=none;" parent="1" vertex="1">
                    <mxGeometry x="80" y="90" width="250" height="20" as="geometry"/>
                </mxCell>
                <mxCell id="XId45q0S1seHopEYeAWh-10" value="Profile&lt;span style=&quot;color: rgba(0 , 0 , 0 , 0) ; font-family: monospace ; font-size: 0px&quot;&gt;%3CmxGraphModel%3E%3Croot%3E%3CmxCell%20id%3D%220%22%2F%3E%3CmxCell%20id%3D%221%22%20parent%3D%220%22%2F%3E%3CmxCell%20id%3D%222%22%20value%3D%22%26lt%3Bfont%20style%3D%26quot%3Bfont-size%3A%2018px%26quot%3B%26gt%3BUI%20Design%26lt%3B%2Ffont%26gt%3B%22%20style%3D%22text%3Bhtml%3D1%3Balign%3Dcenter%3BverticalAlign%3Dmiddle%3Bresizable%3D0%3Bpoints%3D%5B%5D%3Bautosize%3D1%3BstrokeColor%3Dnone%3B%22%20vertex%3D%221%22%20parent%3D%221%22%3E%3CmxGeometry%20x%3D%2210%22%20y%3D%2220%22%20width%3D%2290%22%20height%3D%2220%22%20as%3D%22geometry%22%2F%3E%3C%2FmxCell%3E%3C%2Froot%3E%3C%2FmxGraphModel%3E&lt;/span&gt;" style="text;html=1;strokeColor=none;fillColor=none;align=center;verticalAlign=middle;whiteSpace=wrap;rounded=0;" parent="1" vertex="1">
                    <mxGeometry x="320" y="125" width="40" height="20" as="geometry"/>
                </mxCell>
                <mxCell id="XId45q0S1seHopEYeAWh-11" value="Make a post" style="text;html=1;strokeColor=none;fillColor=none;align=center;verticalAlign=middle;whiteSpace=wrap;rounded=0;" parent="1" vertex="1">
                    <mxGeometry x="242.5" y="125" width="70" height="20" as="geometry"/>
                </mxCell>
                <mxCell id="XId45q0S1seHopEYeAWh-12" value="CSUForums" style="text;html=1;strokeColor=none;fillColor=none;align=center;verticalAlign=middle;whiteSpace=wrap;rounded=0;" parent="1" vertex="1">
                    <mxGeometry x="45" y="125" width="70" height="20" as="geometry"/>
                </mxCell>
                <mxCell id="XId45q0S1seHopEYeAWh-13" value="&lt;font style=&quot;font-size: 18px&quot;&gt;Post Card Component (minimized)&lt;/font&gt;" style="text;html=1;align=center;verticalAlign=middle;resizable=0;points=[];autosize=1;strokeColor=none;" parent="1" vertex="1">
                    <mxGeometry x="35" y="490" width="290" height="20" as="geometry"/>
                </mxCell>
                <mxCell id="XId45q0S1seHopEYeAWh-15" value="" style="whiteSpace=wrap;html=1;aspect=fixed;" parent="1" vertex="1">
                    <mxGeometry x="440" y="120" width="330" height="330" as="geometry"/>
                </mxCell>
                <mxCell id="XId45q0S1seHopEYeAWh-16" value="" style="rounded=0;whiteSpace=wrap;html=1;" parent="1" vertex="1">
                    <mxGeometry x="440" y="120" width="330" height="30" as="geometry"/>
                </mxCell>
                <mxCell id="XId45q0S1seHopEYeAWh-21" value="&lt;font style=&quot;font-size: 18px&quot;&gt;Profile&lt;/font&gt;" style="text;html=1;align=center;verticalAlign=middle;resizable=0;points=[];autosize=1;strokeColor=none;" parent="1" vertex="1">
                    <mxGeometry x="570" y="90" width="70" height="20" as="geometry"/>
                </mxCell>
                <mxCell id="XId45q0S1seHopEYeAWh-22" value="Home" style="text;html=1;strokeColor=none;fillColor=none;align=center;verticalAlign=middle;whiteSpace=wrap;rounded=0;" parent="1" vertex="1">
                    <mxGeometry x="720" y="125" width="40" height="20" as="geometry"/>
                </mxCell>
                <mxCell id="XId45q0S1seHopEYeAWh-24" value="CSUForums" style="text;html=1;strokeColor=none;fillColor=none;align=center;verticalAlign=middle;whiteSpace=wrap;rounded=0;" parent="1" vertex="1">
                    <mxGeometry x="575" y="125" width="70" height="20" as="geometry"/>
                </mxCell>
                <mxCell id="XId45q0S1seHopEYeAWh-32" value="post card component (minimized)" style="rounded=1;whiteSpace=wrap;html=1;" parent="1" vertex="1">
                    <mxGeometry x="80" y="230" width="260" height="60" as="geometry"/>
                </mxCell>
                <mxCell id="XId45q0S1seHopEYeAWh-33" value="post card component (minimized)" style="rounded=1;whiteSpace=wrap;html=1;" parent="1" vertex="1">
                    <mxGeometry x="80" y="300" width="260" height="60" as="geometry"/>
                </mxCell>
                <mxCell id="XId45q0S1seHopEYeAWh-37" value="upvoted" style="text;html=1;strokeColor=none;fillColor=none;align=center;verticalAlign=middle;whiteSpace=wrap;rounded=0;" parent="1" vertex="1">
                    <mxGeometry x="535" y="160" width="70" height="20" as="geometry"/>
                </mxCell>
                <mxCell id="XId45q0S1seHopEYeAWh-38" value="downvoted" style="text;html=1;strokeColor=none;fillColor=none;align=center;verticalAlign=middle;whiteSpace=wrap;rounded=0;" parent="1" vertex="1">
                    <mxGeometry x="600" y="160" width="70" height="20" as="geometry"/>
                </mxCell>
                <mxCell id="XId45q0S1seHopEYeAWh-39" value="view history" style="text;html=1;strokeColor=none;fillColor=none;align=center;verticalAlign=middle;whiteSpace=wrap;rounded=0;" parent="1" vertex="1">
                    <mxGeometry x="670" y="160" width="70" height="20" as="geometry"/>
                </mxCell>
                <mxCell id="XId45q0S1seHopEYeAWh-40" value="" style="line;strokeWidth=2;html=1;" parent="1" vertex="1">
                    <mxGeometry x="495" y="180" width="40" height="10" as="geometry"/>
                </mxCell>
                <mxCell id="XId45q0S1seHopEYeAWh-41" value="My Info" style="text;html=1;strokeColor=none;fillColor=none;align=center;verticalAlign=middle;whiteSpace=wrap;rounded=0;" parent="1" vertex="1">
                    <mxGeometry x="480" y="160" width="70" height="20" as="geometry"/>
                </mxCell>
                <mxCell id="XId45q0S1seHopEYeAWh-42" value="&lt;ul&gt;&lt;li&gt;Username&lt;/li&gt;&lt;li&gt;password&lt;/li&gt;&lt;li&gt;verify&lt;/li&gt;&lt;/ul&gt;" style="text;strokeColor=none;fillColor=none;html=1;whiteSpace=wrap;verticalAlign=middle;overflow=hidden;" parent="1" vertex="1">
                    <mxGeometry x="550" y="230" width="100" height="80" as="geometry"/>
                </mxCell>
                <mxCell id="XId45q0S1seHopEYeAWh-43" value="" style="rounded=1;whiteSpace=wrap;html=1;" parent="1" vertex="1">
                    <mxGeometry x="25" y="510" width="360" height="160" as="geometry"/>
                </mxCell>
                <mxCell id="XId45q0S1seHopEYeAWh-48" value="" style="shape=flexArrow;endArrow=classic;html=1;width=5.517241379310345;endSize=2.737931034482759;" parent="1" edge="1">
                    <mxGeometry width="50" height="50" relative="1" as="geometry">
                        <mxPoint x="55" y="540" as="sourcePoint"/>
                        <mxPoint x="54.519999999999996" y="520" as="targetPoint"/>
                    </mxGeometry>
                </mxCell>
                <mxCell id="XId45q0S1seHopEYeAWh-49" value="" style="shape=flexArrow;endArrow=classic;html=1;width=5.517241379310345;endSize=2.6827586206896554;" parent="1" edge="1">
                    <mxGeometry width="50" height="50" relative="1" as="geometry">
                        <mxPoint x="54.52000000000008" y="560" as="sourcePoint"/>
                        <mxPoint x="54.86" y="580" as="targetPoint"/>
                    </mxGeometry>
                </mxCell>
                <mxCell id="XId45q0S1seHopEYeAWh-53" value="total count" style="text;html=1;strokeColor=none;fillColor=none;align=center;verticalAlign=middle;whiteSpace=wrap;rounded=0;" parent="1" vertex="1">
                    <mxGeometry x="25" y="545" width="60" height="10" as="geometry"/>
                </mxCell>
                <mxCell id="XId45q0S1seHopEYeAWh-55" value="title" style="rounded=0;whiteSpace=wrap;html=1;" parent="1" vertex="1">
                    <mxGeometry x="90" y="530" width="285" height="25" as="geometry"/>
                </mxCell>
                <mxCell id="XId45q0S1seHopEYeAWh-56" value="few characters of the body" style="rounded=0;whiteSpace=wrap;html=1;" parent="1" vertex="1">
                    <mxGeometry x="90" y="560" width="285" height="80" as="geometry"/>
                </mxCell>
                <mxCell id="XId45q0S1seHopEYeAWh-57" value="Comment count" style="text;html=1;strokeColor=none;fillColor=none;align=center;verticalAlign=middle;whiteSpace=wrap;rounded=0;" parent="1" vertex="1">
                    <mxGeometry x="177.5" y="650" width="92.5" height="20" as="geometry"/>
                </mxCell>
                <mxCell id="XId45q0S1seHopEYeAWh-59" value="" style="shape=mxgraph.signs.healthcare.eye;html=1;pointerEvents=1;fillColor=#f5f5f5;strokeColor=#666666;verticalLabelPosition=bottom;verticalAlign=top;align=center;fontColor=#333333;" parent="1" vertex="1">
                    <mxGeometry x="45" y="640" width="30" height="15" as="geometry"/>
                </mxCell>
                <mxCell id="XId45q0S1seHopEYeAWh-63" value="view count" style="text;html=1;strokeColor=none;fillColor=none;align=center;verticalAlign=middle;whiteSpace=wrap;rounded=0;" parent="1" vertex="1">
                    <mxGeometry x="32.5" y="655" width="62.5" height="10" as="geometry"/>
                </mxCell>
                <mxCell id="XId45q0S1seHopEYeAWh-71" value="username" style="text;html=1;strokeColor=none;fillColor=none;align=center;verticalAlign=middle;whiteSpace=wrap;rounded=0;" parent="1" vertex="1">
                    <mxGeometry x="300" y="510" width="15" height="20" as="geometry"/>
                </mxCell>
                <mxCell id="XId45q0S1seHopEYeAWh-72" value="&lt;font style=&quot;font-size: 18px&quot;&gt;Post Card Component (maximized)&lt;/font&gt;" style="text;html=1;align=center;verticalAlign=middle;resizable=0;points=[];autosize=1;strokeColor=none;" parent="1" vertex="1">
                    <mxGeometry x="435" y="485" width="300" height="20" as="geometry"/>
                </mxCell>
                <mxCell id="XId45q0S1seHopEYeAWh-73" value="" style="rounded=1;whiteSpace=wrap;html=1;" parent="1" vertex="1">
                    <mxGeometry x="415" y="505" width="380" height="285" as="geometry"/>
                </mxCell>
                <mxCell id="XId45q0S1seHopEYeAWh-74" value="" style="shape=flexArrow;endArrow=classic;html=1;width=5.517241379310345;endSize=2.737931034482759;" parent="1" edge="1">
                    <mxGeometry width="50" height="50" relative="1" as="geometry">
                        <mxPoint x="460" y="535" as="sourcePoint"/>
                        <mxPoint x="459.52" y="515" as="targetPoint"/>
                    </mxGeometry>
                </mxCell>
                <mxCell id="XId45q0S1seHopEYeAWh-75" value="" style="shape=flexArrow;endArrow=classic;html=1;width=5.517241379310345;endSize=2.6827586206896554;" parent="1" edge="1">
                    <mxGeometry width="50" height="50" relative="1" as="geometry">
                        <mxPoint x="459.52" y="555" as="sourcePoint"/>
                        <mxPoint x="459.8599999999999" y="575" as="targetPoint"/>
                    </mxGeometry>
                </mxCell>
                <mxCell id="XId45q0S1seHopEYeAWh-76" value="total count" style="text;html=1;strokeColor=none;fillColor=none;align=center;verticalAlign=middle;whiteSpace=wrap;rounded=0;" parent="1" vertex="1">
                    <mxGeometry x="430" y="540" width="60" height="10" as="geometry"/>
                </mxCell>
                <mxCell id="XId45q0S1seHopEYeAWh-77" value="title" style="rounded=0;whiteSpace=wrap;html=1;" parent="1" vertex="1">
                    <mxGeometry x="495" y="525" width="285" height="25" as="geometry"/>
                </mxCell>
                <mxCell id="XId45q0S1seHopEYeAWh-78" value="full body" style="rounded=0;whiteSpace=wrap;html=1;" parent="1" vertex="1">
                    <mxGeometry x="495" y="555" width="285" height="215" as="geometry"/>
                </mxCell>
                <mxCell id="XId45q0S1seHopEYeAWh-80" value="" style="shape=mxgraph.signs.healthcare.eye;html=1;pointerEvents=1;fillColor=#f5f5f5;strokeColor=#666666;verticalLabelPosition=bottom;verticalAlign=top;align=center;fontColor=#333333;" parent="1" vertex="1">
                    <mxGeometry x="440" y="745" width="30" height="15" as="geometry"/>
                </mxCell>
                <mxCell id="XId45q0S1seHopEYeAWh-81" value="view count" style="text;html=1;strokeColor=none;fillColor=none;align=center;verticalAlign=middle;whiteSpace=wrap;rounded=0;" parent="1" vertex="1">
                    <mxGeometry x="427.5" y="760" width="62.5" height="10" as="geometry"/>
                </mxCell>
                <mxCell id="XId45q0S1seHopEYeAWh-85" value="" style="whiteSpace=wrap;html=1;shape=mxgraph.basic.oval_callout" parent="1" vertex="1">
                    <mxGeometry x="160" y="652.5" width="17.5" height="15" as="geometry"/>
                </mxCell>
                <mxCell id="XId45q0S1seHopEYeAWh-87" value="Comment count" style="text;html=1;strokeColor=none;fillColor=none;align=center;verticalAlign=middle;whiteSpace=wrap;rounded=0;" parent="1" vertex="1">
                    <mxGeometry x="592.5" y="770" width="92.5" height="20" as="geometry"/>
                </mxCell>
                <mxCell id="XId45q0S1seHopEYeAWh-88" value="" style="whiteSpace=wrap;html=1;shape=mxgraph.basic.oval_callout" parent="1" vertex="1">
                    <mxGeometry x="575" y="772.5" width="17.5" height="15" as="geometry"/>
                </mxCell>
                <mxCell id="XId45q0S1seHopEYeAWh-89" value="expand" style="text;html=1;strokeColor=none;fillColor=none;align=center;verticalAlign=middle;whiteSpace=wrap;rounded=0;" parent="1" vertex="1">
                    <mxGeometry x="345" y="620" width="15" height="20" as="geometry"/>
                </mxCell>
                <mxCell id="XId45q0S1seHopEYeAWh-90" value="date" style="text;html=1;strokeColor=none;fillColor=none;align=center;verticalAlign=middle;whiteSpace=wrap;rounded=0;" parent="1" vertex="1">
                    <mxGeometry x="345" y="510" width="15" height="20" as="geometry"/>
                </mxCell>
                <mxCell id="XId45q0S1seHopEYeAWh-95" value="username" style="text;html=1;strokeColor=none;fillColor=none;align=center;verticalAlign=middle;whiteSpace=wrap;rounded=0;" parent="1" vertex="1">
                    <mxGeometry x="700" y="505" width="15" height="20" as="geometry"/>
                </mxCell>
                <mxCell id="XId45q0S1seHopEYeAWh-96" value="date" style="text;html=1;strokeColor=none;fillColor=none;align=center;verticalAlign=middle;whiteSpace=wrap;rounded=0;" parent="1" vertex="1">
                    <mxGeometry x="745" y="505" width="15" height="20" as="geometry"/>
                </mxCell>
                <mxCell id="XId45q0S1seHopEYeAWh-97" value="" style="whiteSpace=wrap;html=1;aspect=fixed;" parent="1" vertex="1">
                    <mxGeometry x="32.5" y="860" width="330" height="330" as="geometry"/>
                </mxCell>
                <mxCell id="XId45q0S1seHopEYeAWh-98" value="" style="rounded=0;whiteSpace=wrap;html=1;" parent="1" vertex="1">
                    <mxGeometry x="32.5" y="860" width="330" height="30" as="geometry"/>
                </mxCell>
                <mxCell id="XId45q0S1seHopEYeAWh-99" value="card component (maximized)" style="rounded=1;whiteSpace=wrap;html=1;" parent="1" vertex="1">
                    <mxGeometry x="72.5" y="900" width="257.5" height="150" as="geometry"/>
                </mxCell>
                <mxCell id="XId45q0S1seHopEYeAWh-103" value="&lt;font style=&quot;font-size: 18px&quot;&gt;Discussion Page&lt;/font&gt;" style="text;html=1;align=center;verticalAlign=middle;resizable=0;points=[];autosize=1;strokeColor=none;" parent="1" vertex="1">
                    <mxGeometry x="122.5" y="830" width="150" height="20" as="geometry"/>
                </mxCell>
                <mxCell id="XId45q0S1seHopEYeAWh-104" value="Profile&lt;span style=&quot;color: rgba(0 , 0 , 0 , 0) ; font-family: monospace ; font-size: 0px&quot;&gt;%3CmxGraphModel%3E%3Croot%3E%3CmxCell%20id%3D%220%22%2F%3E%3CmxCell%20id%3D%221%22%20parent%3D%220%22%2F%3E%3CmxCell%20id%3D%222%22%20value%3D%22%26lt%3Bfont%20style%3D%26quot%3Bfont-size%3A%2018px%26quot%3B%26gt%3BUI%20Design%26lt%3B%2Ffont%26gt%3B%22%20style%3D%22text%3Bhtml%3D1%3Balign%3Dcenter%3BverticalAlign%3Dmiddle%3Bresizable%3D0%3Bpoints%3D%5B%5D%3Bautosize%3D1%3BstrokeColor%3Dnone%3B%22%20vertex%3D%221%22%20parent%3D%221%22%3E%3CmxGeometry%20x%3D%2210%22%20y%3D%2220%22%20width%3D%2290%22%20height%3D%2220%22%20as%3D%22geometry%22%2F%3E%3C%2FmxCell%3E%3C%2Froot%3E%3C%2FmxGraphModel%3E&lt;/span&gt;" style="text;html=1;strokeColor=none;fillColor=none;align=center;verticalAlign=middle;whiteSpace=wrap;rounded=0;" parent="1" vertex="1">
                    <mxGeometry x="312.5" y="865" width="40" height="20" as="geometry"/>
                </mxCell>
                <mxCell id="XId45q0S1seHopEYeAWh-105" value="Make a post" style="text;html=1;strokeColor=none;fillColor=none;align=center;verticalAlign=middle;whiteSpace=wrap;rounded=0;" parent="1" vertex="1">
                    <mxGeometry x="42.5" y="865" width="70" height="20" as="geometry"/>
                </mxCell>
                <mxCell id="XId45q0S1seHopEYeAWh-106" value="CSUForums" style="text;html=1;strokeColor=none;fillColor=none;align=center;verticalAlign=middle;whiteSpace=wrap;rounded=0;" parent="1" vertex="1">
                    <mxGeometry x="167.5" y="865" width="70" height="20" as="geometry"/>
                </mxCell>
                <mxCell id="XId45q0S1seHopEYeAWh-109" value="write comment&lt;br&gt;(textbox)" style="rounded=0;whiteSpace=wrap;html=1;" parent="1" vertex="1">
                    <mxGeometry x="77.5" y="1060" width="250" height="40" as="geometry"/>
                </mxCell>
                <mxCell id="XId45q0S1seHopEYeAWh-111" value="comment card 1" style="rounded=0;whiteSpace=wrap;html=1;" parent="1" vertex="1">
                    <mxGeometry x="77.5" y="1110" width="250" height="40" as="geometry"/>
                </mxCell>
                <mxCell id="XId45q0S1seHopEYeAWh-112" value="&lt;font style=&quot;font-size: 18px&quot;&gt;Comment Card Component&lt;/font&gt;" style="text;html=1;align=center;verticalAlign=middle;resizable=0;points=[];autosize=1;strokeColor=none;" parent="1" vertex="1">
                    <mxGeometry x="505" y="845" width="240" height="20" as="geometry"/>
                </mxCell>
                <mxCell id="XId45q0S1seHopEYeAWh-114" value="" style="shape=flexArrow;endArrow=classic;html=1;width=5.517241379310345;endSize=2.737931034482759;" parent="1" edge="1">
                    <mxGeometry width="50" height="50" relative="1" as="geometry">
                        <mxPoint x="465" y="900" as="sourcePoint"/>
                        <mxPoint x="464.52" y="880" as="targetPoint"/>
                    </mxGeometry>
                </mxCell>
                <mxCell id="XId45q0S1seHopEYeAWh-115" value="" style="shape=flexArrow;endArrow=classic;html=1;width=5.517241379310345;endSize=2.6827586206896554;" parent="1" edge="1">
                    <mxGeometry width="50" height="50" relative="1" as="geometry">
                        <mxPoint x="464.52" y="920" as="sourcePoint"/>
                        <mxPoint x="464.8599999999999" y="940" as="targetPoint"/>
                    </mxGeometry>
                </mxCell>
                <mxCell id="XId45q0S1seHopEYeAWh-116" value="total count" style="text;html=1;strokeColor=none;fillColor=none;align=center;verticalAlign=middle;whiteSpace=wrap;rounded=0;" parent="1" vertex="1">
                    <mxGeometry x="435" y="905" width="60" height="10" as="geometry"/>
                </mxCell>
                <mxCell id="XId45q0S1seHopEYeAWh-118" value="comment body" style="rounded=0;whiteSpace=wrap;html=1;" parent="1" vertex="1">
                    <mxGeometry x="496.25" y="890" width="285" height="80" as="geometry"/>
                </mxCell>
                <mxCell id="XId45q0S1seHopEYeAWh-122" value="username" style="text;html=1;strokeColor=none;fillColor=none;align=center;verticalAlign=middle;whiteSpace=wrap;rounded=0;" parent="1" vertex="1">
                    <mxGeometry x="710" y="870" width="15" height="20" as="geometry"/>
                </mxCell>
                <mxCell id="XId45q0S1seHopEYeAWh-125" value="date" style="text;html=1;strokeColor=none;fillColor=none;align=center;verticalAlign=middle;whiteSpace=wrap;rounded=0;" parent="1" vertex="1">
                    <mxGeometry x="755" y="870" width="15" height="20" as="geometry"/>
                </mxCell>
                <mxCell id="8osFbQl374C7OsT0EhvQ-1" value="comment card 2" style="rounded=0;whiteSpace=wrap;html=1;" parent="1" vertex="1">
                    <mxGeometry x="77.5" y="1150" width="250" height="40" as="geometry"/>
                </mxCell>
                <mxCell id="8osFbQl374C7OsT0EhvQ-2" value="" style="rounded=0;whiteSpace=wrap;html=1;" parent="1" vertex="1">
                    <mxGeometry x="420" y="1040" width="370" height="135" as="geometry"/>
                </mxCell>
                <mxCell id="8osFbQl374C7OsT0EhvQ-3" value="&lt;font style=&quot;font-size: 18px&quot;&gt;Write Comment Card Component&lt;/font&gt;" style="text;html=1;align=center;verticalAlign=middle;resizable=0;points=[];autosize=1;strokeColor=none;" parent="1" vertex="1">
                    <mxGeometry x="480" y="1020" width="280" height="20" as="geometry"/>
                </mxCell>
                <mxCell id="8osFbQl374C7OsT0EhvQ-7" value="textbox" style="rounded=0;whiteSpace=wrap;html=1;" parent="1" vertex="1">
                    <mxGeometry x="430" y="1050" width="350" height="90" as="geometry"/>
                </mxCell>
                <mxCell id="8osFbQl374C7OsT0EhvQ-10" value="submit" style="rounded=0;whiteSpace=wrap;html=1;" parent="1" vertex="1">
                    <mxGeometry x="710" y="1150" width="60" height="20" as="geometry"/>
                </mxCell>
                <mxCell id="2" value="" style="whiteSpace=wrap;html=1;aspect=fixed;" vertex="1" parent="1">
                    <mxGeometry x="-340" y="110" width="330" height="330" as="geometry"/>
                </mxCell>
                <mxCell id="3" value="" style="rounded=0;whiteSpace=wrap;html=1;" vertex="1" parent="1">
                    <mxGeometry x="-340" y="110" width="330" height="30" as="geometry"/>
                </mxCell>
                <mxCell id="7" value="post card component (minimized)" style="rounded=1;whiteSpace=wrap;html=1;" vertex="1" parent="1">
                    <mxGeometry x="-300" y="330" width="260" height="60" as="geometry"/>
                </mxCell>
                <mxCell id="8" value="&lt;font style=&quot;font-size: 18px&quot;&gt;Home Page (new user)&lt;/font&gt;" style="text;html=1;align=center;verticalAlign=middle;resizable=0;points=[];autosize=1;strokeColor=none;" vertex="1" parent="1">
                    <mxGeometry x="-275" y="80" width="200" height="20" as="geometry"/>
                </mxCell>
                <mxCell id="9" value="login" style="text;html=1;strokeColor=none;fillColor=none;align=center;verticalAlign=middle;whiteSpace=wrap;rounded=0;" vertex="1" parent="1">
                    <mxGeometry x="-60" y="115" width="40" height="20" as="geometry"/>
                </mxCell>
                <mxCell id="11" value="CSUForums" style="text;html=1;strokeColor=none;fillColor=none;align=center;verticalAlign=middle;whiteSpace=wrap;rounded=0;" vertex="1" parent="1">
                    <mxGeometry x="-330" y="115" width="70" height="20" as="geometry"/>
                </mxCell>
                <mxCell id="12" value="post card component (minimized)" style="rounded=1;whiteSpace=wrap;html=1;" vertex="1" parent="1">
                    <mxGeometry x="-300" y="170" width="260" height="60" as="geometry"/>
                </mxCell>
                <mxCell id="13" value="post card component (minimized)" style="rounded=1;whiteSpace=wrap;html=1;" vertex="1" parent="1">
                    <mxGeometry x="-300" y="250" width="260" height="60" as="geometry"/>
                </mxCell>
                <mxCell id="14" value="register" style="text;html=1;strokeColor=none;fillColor=none;align=center;verticalAlign=middle;whiteSpace=wrap;rounded=0;" vertex="1" parent="1">
                    <mxGeometry x="-100" y="115" width="40" height="20" as="geometry"/>
                </mxCell>
                <mxCell id="16" value="" style="shape=rect;strokeColor=none;fillColor=none;" vertex="1" parent="1">
                    <mxGeometry x="-250" y="115" width="137" height="20" as="geometry"/>
                </mxCell>
                <mxCell id="17" value="" style="html=1;strokeWidth=1;shadow=0;dashed=0;shape=mxgraph.ios7ui.marginRect;rx=3;ry=3;rectMargin=5;strokeColor=none;" vertex="1" parent="16">
                    <mxGeometry width="137" height="20" as="geometry"/>
                </mxCell>
                <mxCell id="18" value="Search" style="shape=mxgraph.ios7.icons.looking_glass;strokeColor=#e0e0e0;fillColor=none;fontColor=#e0e0e0;labelPosition=right;verticalLabelPosition=middle;align=left;verticalAlign=middle;fontSize=6;fontStyle=0;spacingTop=2;" vertex="1" parent="16">
                    <mxGeometry x="0.5" y="0.5" width="6" height="6" relative="1" as="geometry">
                        <mxPoint x="-17" y="-3" as="offset"/>
                    </mxGeometry>
                </mxCell>
                <mxCell id="22" value="&lt;font style=&quot;font-size: 9px&quot;&gt;filer: recent (default), most votes, etc.&lt;br&gt;&lt;/font&gt;" style="text;html=1;strokeColor=none;fillColor=none;align=center;verticalAlign=middle;whiteSpace=wrap;rounded=0;" vertex="1" parent="1">
                    <mxGeometry x="-200" y="145" width="160" height="20" as="geometry"/>
                </mxCell>
            </root>
        </mxGraphModel>
    </diagram>
    <diagram id="l8Y6YyyhgrC-x_ocYLbs" name="Database Design">
        <mxGraphModel dx="1107" dy="902" grid="1" gridSize="10" guides="1" tooltips="1" connect="1" arrows="1" fold="1" page="1" pageScale="1" pageWidth="850" pageHeight="1100" math="0" shadow="0">
            <root>
                <mxCell id="GSYnNAoyOlq5wy5UmiM3-0"/>
                <mxCell id="GSYnNAoyOlq5wy5UmiM3-1" parent="GSYnNAoyOlq5wy5UmiM3-0"/>
                <mxCell id="bLPFvPyTOIOqSBMOL_Vs-0" value="Users" style="shape=table;startSize=30;container=1;collapsible=1;childLayout=tableLayout;fixedRows=1;rowLines=0;fontStyle=1;align=center;resizeLast=1;" parent="GSYnNAoyOlq5wy5UmiM3-1" vertex="1">
                    <mxGeometry x="40" y="60" width="180" height="160" as="geometry"/>
                </mxCell>
                <mxCell id="bLPFvPyTOIOqSBMOL_Vs-1" value="" style="shape=partialRectangle;collapsible=0;dropTarget=0;pointerEvents=0;fillColor=none;top=0;left=0;bottom=1;right=0;points=[[0,0.5],[1,0.5]];portConstraint=eastwest;" parent="bLPFvPyTOIOqSBMOL_Vs-0" vertex="1">
                    <mxGeometry y="30" width="180" height="30" as="geometry"/>
                </mxCell>
                <mxCell id="bLPFvPyTOIOqSBMOL_Vs-2" value="PK" style="shape=partialRectangle;connectable=0;fillColor=none;top=0;left=0;bottom=0;right=0;fontStyle=1;overflow=hidden;" parent="bLPFvPyTOIOqSBMOL_Vs-1" vertex="1">
                    <mxGeometry width="30" height="30" as="geometry"/>
                </mxCell>
                <mxCell id="bLPFvPyTOIOqSBMOL_Vs-3" value="UserID" style="shape=partialRectangle;connectable=0;fillColor=none;top=0;left=0;bottom=0;right=0;align=left;spacingLeft=6;fontStyle=5;overflow=hidden;" parent="bLPFvPyTOIOqSBMOL_Vs-1" vertex="1">
                    <mxGeometry x="30" width="150" height="30" as="geometry"/>
                </mxCell>
                <mxCell id="bLPFvPyTOIOqSBMOL_Vs-4" value="" style="shape=partialRectangle;collapsible=0;dropTarget=0;pointerEvents=0;fillColor=none;top=0;left=0;bottom=0;right=0;points=[[0,0.5],[1,0.5]];portConstraint=eastwest;" parent="bLPFvPyTOIOqSBMOL_Vs-0" vertex="1">
                    <mxGeometry y="60" width="180" height="30" as="geometry"/>
                </mxCell>
                <mxCell id="bLPFvPyTOIOqSBMOL_Vs-5" value="" style="shape=partialRectangle;connectable=0;fillColor=none;top=0;left=0;bottom=0;right=0;editable=1;overflow=hidden;" parent="bLPFvPyTOIOqSBMOL_Vs-4" vertex="1">
                    <mxGeometry width="30" height="30" as="geometry"/>
                </mxCell>
                <mxCell id="bLPFvPyTOIOqSBMOL_Vs-6" value="Username    " style="shape=partialRectangle;connectable=0;fillColor=none;top=0;left=0;bottom=0;right=0;align=left;spacingLeft=6;overflow=hidden;" parent="bLPFvPyTOIOqSBMOL_Vs-4" vertex="1">
                    <mxGeometry x="30" width="150" height="30" as="geometry"/>
                </mxCell>
                <mxCell id="bLPFvPyTOIOqSBMOL_Vs-7" value="" style="shape=partialRectangle;collapsible=0;dropTarget=0;pointerEvents=0;fillColor=none;top=0;left=0;bottom=0;right=0;points=[[0,0.5],[1,0.5]];portConstraint=eastwest;" parent="bLPFvPyTOIOqSBMOL_Vs-0" vertex="1">
                    <mxGeometry y="90" width="180" height="30" as="geometry"/>
                </mxCell>
                <mxCell id="bLPFvPyTOIOqSBMOL_Vs-8" value="" style="shape=partialRectangle;connectable=0;fillColor=none;top=0;left=0;bottom=0;right=0;editable=1;overflow=hidden;" parent="bLPFvPyTOIOqSBMOL_Vs-7" vertex="1">
                    <mxGeometry width="30" height="30" as="geometry"/>
                </mxCell>
                <mxCell id="bLPFvPyTOIOqSBMOL_Vs-9" value="Password" style="shape=partialRectangle;connectable=0;fillColor=none;top=0;left=0;bottom=0;right=0;align=left;spacingLeft=6;overflow=hidden;" parent="bLPFvPyTOIOqSBMOL_Vs-7" vertex="1">
                    <mxGeometry x="30" width="150" height="30" as="geometry"/>
                </mxCell>
                <mxCell id="bLPFvPyTOIOqSBMOL_Vs-10" value="" style="shape=partialRectangle;collapsible=0;dropTarget=0;pointerEvents=0;fillColor=none;top=0;left=0;bottom=0;right=0;points=[[0,0.5],[1,0.5]];portConstraint=eastwest;" parent="bLPFvPyTOIOqSBMOL_Vs-0" vertex="1">
                    <mxGeometry y="120" width="180" height="30" as="geometry"/>
                </mxCell>
                <mxCell id="bLPFvPyTOIOqSBMOL_Vs-11" value="" style="shape=partialRectangle;connectable=0;fillColor=none;top=0;left=0;bottom=0;right=0;editable=1;overflow=hidden;" parent="bLPFvPyTOIOqSBMOL_Vs-10" vertex="1">
                    <mxGeometry width="30" height="30" as="geometry"/>
                </mxCell>
                <mxCell id="bLPFvPyTOIOqSBMOL_Vs-12" value="Verified" style="shape=partialRectangle;connectable=0;fillColor=none;top=0;left=0;bottom=0;right=0;align=left;spacingLeft=6;overflow=hidden;" parent="bLPFvPyTOIOqSBMOL_Vs-10" vertex="1">
                    <mxGeometry x="30" width="150" height="30" as="geometry"/>
                </mxCell>
                <mxCell id="bLPFvPyTOIOqSBMOL_Vs-14" value="Posts" style="shape=table;startSize=30;container=1;collapsible=1;childLayout=tableLayout;fixedRows=1;rowLines=0;fontStyle=1;align=center;resizeLast=1;" parent="GSYnNAoyOlq5wy5UmiM3-1" vertex="1">
                    <mxGeometry x="20" y="390" width="180" height="240" as="geometry"/>
                </mxCell>
                <mxCell id="bLPFvPyTOIOqSBMOL_Vs-15" value="" style="shape=partialRectangle;collapsible=0;dropTarget=0;pointerEvents=0;fillColor=none;top=0;left=0;bottom=1;right=0;points=[[0,0.5],[1,0.5]];portConstraint=eastwest;" parent="bLPFvPyTOIOqSBMOL_Vs-14" vertex="1">
                    <mxGeometry y="30" width="180" height="30" as="geometry"/>
                </mxCell>
                <mxCell id="bLPFvPyTOIOqSBMOL_Vs-16" value="PK" style="shape=partialRectangle;connectable=0;fillColor=none;top=0;left=0;bottom=0;right=0;fontStyle=1;overflow=hidden;" parent="bLPFvPyTOIOqSBMOL_Vs-15" vertex="1">
                    <mxGeometry width="30" height="30" as="geometry"/>
                </mxCell>
                <mxCell id="bLPFvPyTOIOqSBMOL_Vs-17" value="PostID" style="shape=partialRectangle;connectable=0;fillColor=none;top=0;left=0;bottom=0;right=0;align=left;spacingLeft=6;fontStyle=5;overflow=hidden;" parent="bLPFvPyTOIOqSBMOL_Vs-15" vertex="1">
                    <mxGeometry x="30" width="150" height="30" as="geometry"/>
                </mxCell>
                <mxCell id="bLPFvPyTOIOqSBMOL_Vs-18" value="" style="shape=partialRectangle;collapsible=0;dropTarget=0;pointerEvents=0;fillColor=none;top=0;left=0;bottom=0;right=0;points=[[0,0.5],[1,0.5]];portConstraint=eastwest;" parent="bLPFvPyTOIOqSBMOL_Vs-14" vertex="1">
                    <mxGeometry y="60" width="180" height="30" as="geometry"/>
                </mxCell>
                <mxCell id="bLPFvPyTOIOqSBMOL_Vs-19" value="FK" style="shape=partialRectangle;connectable=0;fillColor=none;top=0;left=0;bottom=0;right=0;editable=1;overflow=hidden;" parent="bLPFvPyTOIOqSBMOL_Vs-18" vertex="1">
                    <mxGeometry width="30" height="30" as="geometry"/>
                </mxCell>
                <mxCell id="bLPFvPyTOIOqSBMOL_Vs-20" value="UserID" style="shape=partialRectangle;connectable=0;fillColor=none;top=0;left=0;bottom=0;right=0;align=left;spacingLeft=6;overflow=hidden;" parent="bLPFvPyTOIOqSBMOL_Vs-18" vertex="1">
                    <mxGeometry x="30" width="150" height="30" as="geometry"/>
                </mxCell>
                <mxCell id="bLPFvPyTOIOqSBMOL_Vs-24" value="" style="shape=partialRectangle;collapsible=0;dropTarget=0;pointerEvents=0;fillColor=none;top=0;left=0;bottom=0;right=0;points=[[0,0.5],[1,0.5]];portConstraint=eastwest;" parent="bLPFvPyTOIOqSBMOL_Vs-14" vertex="1">
                    <mxGeometry y="90" width="180" height="30" as="geometry"/>
                </mxCell>
                <mxCell id="bLPFvPyTOIOqSBMOL_Vs-25" value="" style="shape=partialRectangle;connectable=0;fillColor=none;top=0;left=0;bottom=0;right=0;editable=1;overflow=hidden;" parent="bLPFvPyTOIOqSBMOL_Vs-24" vertex="1">
                    <mxGeometry width="30" height="30" as="geometry"/>
                </mxCell>
                <mxCell id="bLPFvPyTOIOqSBMOL_Vs-26" value="Title" style="shape=partialRectangle;connectable=0;fillColor=none;top=0;left=0;bottom=0;right=0;align=left;spacingLeft=6;overflow=hidden;" parent="bLPFvPyTOIOqSBMOL_Vs-24" vertex="1">
                    <mxGeometry x="30" width="150" height="30" as="geometry"/>
                </mxCell>
                <mxCell id="FDbLjJYa_c3rl3cqd_hb-0" value="" style="shape=partialRectangle;collapsible=0;dropTarget=0;pointerEvents=0;fillColor=none;top=0;left=0;bottom=0;right=0;points=[[0,0.5],[1,0.5]];portConstraint=eastwest;" parent="bLPFvPyTOIOqSBMOL_Vs-14" vertex="1">
                    <mxGeometry y="120" width="180" height="30" as="geometry"/>
                </mxCell>
                <mxCell id="FDbLjJYa_c3rl3cqd_hb-1" value="" style="shape=partialRectangle;connectable=0;fillColor=none;top=0;left=0;bottom=0;right=0;editable=1;overflow=hidden;" parent="FDbLjJYa_c3rl3cqd_hb-0" vertex="1">
                    <mxGeometry width="30" height="30" as="geometry"/>
                </mxCell>
                <mxCell id="FDbLjJYa_c3rl3cqd_hb-2" value="Body" style="shape=partialRectangle;connectable=0;fillColor=none;top=0;left=0;bottom=0;right=0;align=left;spacingLeft=6;overflow=hidden;" parent="FDbLjJYa_c3rl3cqd_hb-0" vertex="1">
                    <mxGeometry x="30" width="150" height="30" as="geometry"/>
                </mxCell>
                <mxCell id="FDbLjJYa_c3rl3cqd_hb-3" value="" style="shape=partialRectangle;collapsible=0;dropTarget=0;pointerEvents=0;fillColor=none;top=0;left=0;bottom=0;right=0;points=[[0,0.5],[1,0.5]];portConstraint=eastwest;" parent="bLPFvPyTOIOqSBMOL_Vs-14" vertex="1">
                    <mxGeometry y="150" width="180" height="30" as="geometry"/>
                </mxCell>
                <mxCell id="FDbLjJYa_c3rl3cqd_hb-4" value="" style="shape=partialRectangle;connectable=0;fillColor=none;top=0;left=0;bottom=0;right=0;editable=1;overflow=hidden;" parent="FDbLjJYa_c3rl3cqd_hb-3" vertex="1">
                    <mxGeometry width="30" height="30" as="geometry"/>
                </mxCell>
                <mxCell id="FDbLjJYa_c3rl3cqd_hb-5" value="Created_Date" style="shape=partialRectangle;connectable=0;fillColor=none;top=0;left=0;bottom=0;right=0;align=left;spacingLeft=6;overflow=hidden;" parent="FDbLjJYa_c3rl3cqd_hb-3" vertex="1">
                    <mxGeometry x="30" width="150" height="30" as="geometry"/>
                </mxCell>
                <mxCell id="FDbLjJYa_c3rl3cqd_hb-6" value="" style="shape=partialRectangle;collapsible=0;dropTarget=0;pointerEvents=0;fillColor=none;top=0;left=0;bottom=0;right=0;points=[[0,0.5],[1,0.5]];portConstraint=eastwest;" parent="bLPFvPyTOIOqSBMOL_Vs-14" vertex="1">
                    <mxGeometry y="180" width="180" height="30" as="geometry"/>
                </mxCell>
                <mxCell id="FDbLjJYa_c3rl3cqd_hb-7" value="" style="shape=partialRectangle;connectable=0;fillColor=none;top=0;left=0;bottom=0;right=0;editable=1;overflow=hidden;" parent="FDbLjJYa_c3rl3cqd_hb-6" vertex="1">
                    <mxGeometry width="30" height="30" as="geometry"/>
                </mxCell>
                <mxCell id="FDbLjJYa_c3rl3cqd_hb-8" value="Edited_Date" style="shape=partialRectangle;connectable=0;fillColor=none;top=0;left=0;bottom=0;right=0;align=left;spacingLeft=6;overflow=hidden;" parent="FDbLjJYa_c3rl3cqd_hb-6" vertex="1">
                    <mxGeometry x="30" width="150" height="30" as="geometry"/>
                </mxCell>
                <mxCell id="AoUdtBYS1rWbbObA7mXE-14" value="" style="shape=partialRectangle;collapsible=0;dropTarget=0;pointerEvents=0;fillColor=none;top=0;left=0;bottom=0;right=0;points=[[0,0.5],[1,0.5]];portConstraint=eastwest;" parent="bLPFvPyTOIOqSBMOL_Vs-14" vertex="1">
                    <mxGeometry y="210" width="180" height="30" as="geometry"/>
                </mxCell>
                <mxCell id="AoUdtBYS1rWbbObA7mXE-15" value="" style="shape=partialRectangle;connectable=0;fillColor=none;top=0;left=0;bottom=0;right=0;editable=1;overflow=hidden;" parent="AoUdtBYS1rWbbObA7mXE-14" vertex="1">
                    <mxGeometry width="30" height="30" as="geometry"/>
                </mxCell>
                <mxCell id="AoUdtBYS1rWbbObA7mXE-16" value="View_count" style="shape=partialRectangle;connectable=0;fillColor=none;top=0;left=0;bottom=0;right=0;align=left;spacingLeft=6;overflow=hidden;" parent="AoUdtBYS1rWbbObA7mXE-14" vertex="1">
                    <mxGeometry x="30" width="150" height="30" as="geometry"/>
                </mxCell>
                <mxCell id="bLPFvPyTOIOqSBMOL_Vs-27" value="Comments" style="shape=table;startSize=30;container=1;collapsible=1;childLayout=tableLayout;fixedRows=1;rowLines=0;fontStyle=1;align=center;resizeLast=1;" parent="GSYnNAoyOlq5wy5UmiM3-1" vertex="1">
                    <mxGeometry x="450" y="30" width="180" height="220" as="geometry"/>
                </mxCell>
                <mxCell id="bLPFvPyTOIOqSBMOL_Vs-28" value="" style="shape=partialRectangle;collapsible=0;dropTarget=0;pointerEvents=0;fillColor=none;top=0;left=0;bottom=1;right=0;points=[[0,0.5],[1,0.5]];portConstraint=eastwest;" parent="bLPFvPyTOIOqSBMOL_Vs-27" vertex="1">
                    <mxGeometry y="30" width="180" height="30" as="geometry"/>
                </mxCell>
                <mxCell id="bLPFvPyTOIOqSBMOL_Vs-29" value="PK" style="shape=partialRectangle;connectable=0;fillColor=none;top=0;left=0;bottom=0;right=0;fontStyle=1;overflow=hidden;" parent="bLPFvPyTOIOqSBMOL_Vs-28" vertex="1">
                    <mxGeometry width="30" height="30" as="geometry"/>
                </mxCell>
                <mxCell id="bLPFvPyTOIOqSBMOL_Vs-30" value="CommentID" style="shape=partialRectangle;connectable=0;fillColor=none;top=0;left=0;bottom=0;right=0;align=left;spacingLeft=6;fontStyle=5;overflow=hidden;" parent="bLPFvPyTOIOqSBMOL_Vs-28" vertex="1">
                    <mxGeometry x="30" width="150" height="30" as="geometry"/>
                </mxCell>
                <mxCell id="bLPFvPyTOIOqSBMOL_Vs-31" value="" style="shape=partialRectangle;collapsible=0;dropTarget=0;pointerEvents=0;fillColor=none;top=0;left=0;bottom=0;right=0;points=[[0,0.5],[1,0.5]];portConstraint=eastwest;" parent="bLPFvPyTOIOqSBMOL_Vs-27" vertex="1">
                    <mxGeometry y="60" width="180" height="30" as="geometry"/>
                </mxCell>
                <mxCell id="bLPFvPyTOIOqSBMOL_Vs-32" value="FK" style="shape=partialRectangle;connectable=0;fillColor=none;top=0;left=0;bottom=0;right=0;editable=1;overflow=hidden;" parent="bLPFvPyTOIOqSBMOL_Vs-31" vertex="1">
                    <mxGeometry width="30" height="30" as="geometry"/>
                </mxCell>
                <mxCell id="bLPFvPyTOIOqSBMOL_Vs-33" value="UserID" style="shape=partialRectangle;connectable=0;fillColor=none;top=0;left=0;bottom=0;right=0;align=left;spacingLeft=6;overflow=hidden;" parent="bLPFvPyTOIOqSBMOL_Vs-31" vertex="1">
                    <mxGeometry x="30" width="150" height="30" as="geometry"/>
                </mxCell>
                <mxCell id="bLPFvPyTOIOqSBMOL_Vs-34" value="" style="shape=partialRectangle;collapsible=0;dropTarget=0;pointerEvents=0;fillColor=none;top=0;left=0;bottom=0;right=0;points=[[0,0.5],[1,0.5]];portConstraint=eastwest;" parent="bLPFvPyTOIOqSBMOL_Vs-27" vertex="1">
                    <mxGeometry y="90" width="180" height="30" as="geometry"/>
                </mxCell>
                <mxCell id="bLPFvPyTOIOqSBMOL_Vs-35" value="FK" style="shape=partialRectangle;connectable=0;fillColor=none;top=0;left=0;bottom=0;right=0;editable=1;overflow=hidden;" parent="bLPFvPyTOIOqSBMOL_Vs-34" vertex="1">
                    <mxGeometry width="30" height="30" as="geometry"/>
                </mxCell>
                <mxCell id="bLPFvPyTOIOqSBMOL_Vs-36" value="PostID" style="shape=partialRectangle;connectable=0;fillColor=none;top=0;left=0;bottom=0;right=0;align=left;spacingLeft=6;overflow=hidden;" parent="bLPFvPyTOIOqSBMOL_Vs-34" vertex="1">
                    <mxGeometry x="30" width="150" height="30" as="geometry"/>
                </mxCell>
                <mxCell id="FDbLjJYa_c3rl3cqd_hb-12" value="" style="shape=partialRectangle;collapsible=0;dropTarget=0;pointerEvents=0;fillColor=none;top=0;left=0;bottom=0;right=0;points=[[0,0.5],[1,0.5]];portConstraint=eastwest;" parent="bLPFvPyTOIOqSBMOL_Vs-27" vertex="1">
                    <mxGeometry y="120" width="180" height="30" as="geometry"/>
                </mxCell>
                <mxCell id="FDbLjJYa_c3rl3cqd_hb-13" value="" style="shape=partialRectangle;connectable=0;fillColor=none;top=0;left=0;bottom=0;right=0;editable=1;overflow=hidden;" parent="FDbLjJYa_c3rl3cqd_hb-12" vertex="1">
                    <mxGeometry width="30" height="30" as="geometry"/>
                </mxCell>
                <mxCell id="FDbLjJYa_c3rl3cqd_hb-14" value="VoteCount" style="shape=partialRectangle;connectable=0;fillColor=none;top=0;left=0;bottom=0;right=0;align=left;spacingLeft=6;overflow=hidden;" parent="FDbLjJYa_c3rl3cqd_hb-12" vertex="1">
                    <mxGeometry x="30" width="150" height="30" as="geometry"/>
                </mxCell>
                <mxCell id="FDbLjJYa_c3rl3cqd_hb-15" value="" style="shape=partialRectangle;collapsible=0;dropTarget=0;pointerEvents=0;fillColor=none;top=0;left=0;bottom=0;right=0;points=[[0,0.5],[1,0.5]];portConstraint=eastwest;" parent="bLPFvPyTOIOqSBMOL_Vs-27" vertex="1">
                    <mxGeometry y="150" width="180" height="30" as="geometry"/>
                </mxCell>
                <mxCell id="FDbLjJYa_c3rl3cqd_hb-16" value="" style="shape=partialRectangle;connectable=0;fillColor=none;top=0;left=0;bottom=0;right=0;editable=1;overflow=hidden;" parent="FDbLjJYa_c3rl3cqd_hb-15" vertex="1">
                    <mxGeometry width="30" height="30" as="geometry"/>
                </mxCell>
                <mxCell id="FDbLjJYa_c3rl3cqd_hb-17" value="Body" style="shape=partialRectangle;connectable=0;fillColor=none;top=0;left=0;bottom=0;right=0;align=left;spacingLeft=6;overflow=hidden;" parent="FDbLjJYa_c3rl3cqd_hb-15" vertex="1">
                    <mxGeometry x="30" width="150" height="30" as="geometry"/>
                </mxCell>
                <mxCell id="FDbLjJYa_c3rl3cqd_hb-18" value="" style="shape=partialRectangle;collapsible=0;dropTarget=0;pointerEvents=0;fillColor=none;top=0;left=0;bottom=0;right=0;points=[[0,0.5],[1,0.5]];portConstraint=eastwest;" parent="bLPFvPyTOIOqSBMOL_Vs-27" vertex="1">
                    <mxGeometry y="180" width="180" height="40" as="geometry"/>
                </mxCell>
                <mxCell id="FDbLjJYa_c3rl3cqd_hb-19" value="" style="shape=partialRectangle;connectable=0;fillColor=none;top=0;left=0;bottom=0;right=0;editable=1;overflow=hidden;" parent="FDbLjJYa_c3rl3cqd_hb-18" vertex="1">
                    <mxGeometry width="30" height="40" as="geometry"/>
                </mxCell>
                <mxCell id="FDbLjJYa_c3rl3cqd_hb-20" value="Date" style="shape=partialRectangle;connectable=0;fillColor=none;top=0;left=0;bottom=0;right=0;align=left;spacingLeft=6;overflow=hidden;" parent="FDbLjJYa_c3rl3cqd_hb-18" vertex="1">
                    <mxGeometry x="30" width="150" height="40" as="geometry"/>
                </mxCell>
                <mxCell id="bLPFvPyTOIOqSBMOL_Vs-51" style="edgeStyle=orthogonalEdgeStyle;rounded=0;orthogonalLoop=1;jettySize=auto;html=1;exitX=1;exitY=0.5;exitDx=0;exitDy=0;entryX=1;entryY=0.5;entryDx=0;entryDy=0;" parent="GSYnNAoyOlq5wy5UmiM3-1" source="bLPFvPyTOIOqSBMOL_Vs-1" target="bLPFvPyTOIOqSBMOL_Vs-18" edge="1">
                    <mxGeometry relative="1" as="geometry"/>
                </mxCell>
                <mxCell id="bLPFvPyTOIOqSBMOL_Vs-52" style="edgeStyle=orthogonalEdgeStyle;rounded=0;orthogonalLoop=1;jettySize=auto;html=1;entryX=0;entryY=0.5;entryDx=0;entryDy=0;" parent="GSYnNAoyOlq5wy5UmiM3-1" source="bLPFvPyTOIOqSBMOL_Vs-1" target="bLPFvPyTOIOqSBMOL_Vs-31" edge="1">
                    <mxGeometry relative="1" as="geometry"/>
                </mxCell>
                <mxCell id="bLPFvPyTOIOqSBMOL_Vs-53" style="edgeStyle=orthogonalEdgeStyle;rounded=0;orthogonalLoop=1;jettySize=auto;html=1;exitX=1;exitY=0.5;exitDx=0;exitDy=0;entryX=0;entryY=0.5;entryDx=0;entryDy=0;" parent="GSYnNAoyOlq5wy5UmiM3-1" source="bLPFvPyTOIOqSBMOL_Vs-15" target="bLPFvPyTOIOqSBMOL_Vs-34" edge="1">
                    <mxGeometry relative="1" as="geometry"/>
                </mxCell>
                <mxCell id="z_Tj6OgZlOPkTaH6N6N_-0" value="Votes" style="shape=table;startSize=30;container=1;collapsible=1;childLayout=tableLayout;fixedRows=1;rowLines=0;fontStyle=1;align=center;resizeLast=1;" parent="GSYnNAoyOlq5wy5UmiM3-1" vertex="1">
                    <mxGeometry x="430" y="330" width="180" height="180" as="geometry"/>
                </mxCell>
                <mxCell id="z_Tj6OgZlOPkTaH6N6N_-1" value="" style="shape=partialRectangle;collapsible=0;dropTarget=0;pointerEvents=0;fillColor=none;top=0;left=0;bottom=1;right=0;points=[[0,0.5],[1,0.5]];portConstraint=eastwest;" parent="z_Tj6OgZlOPkTaH6N6N_-0" vertex="1">
                    <mxGeometry y="30" width="180" height="30" as="geometry"/>
                </mxCell>
                <mxCell id="z_Tj6OgZlOPkTaH6N6N_-2" value="PK" style="shape=partialRectangle;connectable=0;fillColor=none;top=0;left=0;bottom=0;right=0;fontStyle=1;overflow=hidden;" parent="z_Tj6OgZlOPkTaH6N6N_-1" vertex="1">
                    <mxGeometry width="30" height="30" as="geometry"/>
                </mxCell>
                <mxCell id="z_Tj6OgZlOPkTaH6N6N_-3" value="VoteID" style="shape=partialRectangle;connectable=0;fillColor=none;top=0;left=0;bottom=0;right=0;align=left;spacingLeft=6;fontStyle=5;overflow=hidden;" parent="z_Tj6OgZlOPkTaH6N6N_-1" vertex="1">
                    <mxGeometry x="30" width="150" height="30" as="geometry"/>
                </mxCell>
                <mxCell id="z_Tj6OgZlOPkTaH6N6N_-4" value="" style="shape=partialRectangle;collapsible=0;dropTarget=0;pointerEvents=0;fillColor=none;top=0;left=0;bottom=0;right=0;points=[[0,0.5],[1,0.5]];portConstraint=eastwest;" parent="z_Tj6OgZlOPkTaH6N6N_-0" vertex="1">
                    <mxGeometry y="60" width="180" height="30" as="geometry"/>
                </mxCell>
                <mxCell id="z_Tj6OgZlOPkTaH6N6N_-5" value="FK" style="shape=partialRectangle;connectable=0;fillColor=none;top=0;left=0;bottom=0;right=0;editable=1;overflow=hidden;" parent="z_Tj6OgZlOPkTaH6N6N_-4" vertex="1">
                    <mxGeometry width="30" height="30" as="geometry"/>
                </mxCell>
                <mxCell id="z_Tj6OgZlOPkTaH6N6N_-6" value="UserID" style="shape=partialRectangle;connectable=0;fillColor=none;top=0;left=0;bottom=0;right=0;align=left;spacingLeft=6;overflow=hidden;" parent="z_Tj6OgZlOPkTaH6N6N_-4" vertex="1">
                    <mxGeometry x="30" width="150" height="30" as="geometry"/>
                </mxCell>
                <mxCell id="z_Tj6OgZlOPkTaH6N6N_-7" value="" style="shape=partialRectangle;collapsible=0;dropTarget=0;pointerEvents=0;fillColor=none;top=0;left=0;bottom=0;right=0;points=[[0,0.5],[1,0.5]];portConstraint=eastwest;" parent="z_Tj6OgZlOPkTaH6N6N_-0" vertex="1">
                    <mxGeometry y="90" width="180" height="30" as="geometry"/>
                </mxCell>
                <mxCell id="z_Tj6OgZlOPkTaH6N6N_-8" value="FK" style="shape=partialRectangle;connectable=0;fillColor=none;top=0;left=0;bottom=0;right=0;editable=1;overflow=hidden;" parent="z_Tj6OgZlOPkTaH6N6N_-7" vertex="1">
                    <mxGeometry width="30" height="30" as="geometry"/>
                </mxCell>
                <mxCell id="z_Tj6OgZlOPkTaH6N6N_-9" value="PostID" style="shape=partialRectangle;connectable=0;fillColor=none;top=0;left=0;bottom=0;right=0;align=left;spacingLeft=6;overflow=hidden;" parent="z_Tj6OgZlOPkTaH6N6N_-7" vertex="1">
                    <mxGeometry x="30" width="150" height="30" as="geometry"/>
                </mxCell>
                <mxCell id="bLPFvPyTOIOqSBMOL_Vs-21" value="" style="shape=partialRectangle;collapsible=0;dropTarget=0;pointerEvents=0;fillColor=none;top=0;left=0;bottom=0;right=0;points=[[0,0.5],[1,0.5]];portConstraint=eastwest;" parent="z_Tj6OgZlOPkTaH6N6N_-0" vertex="1">
                    <mxGeometry y="120" width="180" height="30" as="geometry"/>
                </mxCell>
                <mxCell id="bLPFvPyTOIOqSBMOL_Vs-22" value="" style="shape=partialRectangle;connectable=0;fillColor=none;top=0;left=0;bottom=0;right=0;editable=1;overflow=hidden;" parent="bLPFvPyTOIOqSBMOL_Vs-21" vertex="1">
                    <mxGeometry width="30" height="30" as="geometry"/>
                </mxCell>
                <mxCell id="bLPFvPyTOIOqSBMOL_Vs-23" value="Direction" style="shape=partialRectangle;connectable=0;fillColor=none;top=0;left=0;bottom=0;right=0;align=left;spacingLeft=6;overflow=hidden;" parent="bLPFvPyTOIOqSBMOL_Vs-21" vertex="1">
                    <mxGeometry x="30" width="150" height="30" as="geometry"/>
                </mxCell>
                <mxCell id="z_Tj6OgZlOPkTaH6N6N_-10" value="" style="shape=partialRectangle;collapsible=0;dropTarget=0;pointerEvents=0;fillColor=none;top=0;left=0;bottom=0;right=0;points=[[0,0.5],[1,0.5]];portConstraint=eastwest;" parent="z_Tj6OgZlOPkTaH6N6N_-0" vertex="1">
                    <mxGeometry y="150" width="180" height="30" as="geometry"/>
                </mxCell>
                <mxCell id="z_Tj6OgZlOPkTaH6N6N_-11" value="" style="shape=partialRectangle;connectable=0;fillColor=none;top=0;left=0;bottom=0;right=0;editable=1;overflow=hidden;" parent="z_Tj6OgZlOPkTaH6N6N_-10" vertex="1">
                    <mxGeometry width="30" height="30" as="geometry"/>
                </mxCell>
                <mxCell id="z_Tj6OgZlOPkTaH6N6N_-12" value="type https://stackoverflow.com/questions/12766666/how-would-you-add-a-column-that-only-has-a-set-choice-of-values" style="shape=partialRectangle;connectable=0;fillColor=none;top=0;left=0;bottom=0;right=0;align=left;spacingLeft=6;overflow=hidden;" parent="z_Tj6OgZlOPkTaH6N6N_-10" vertex="1">
                    <mxGeometry x="30" width="150" height="30" as="geometry"/>
                </mxCell>
                <mxCell id="AoUdtBYS1rWbbObA7mXE-12" style="edgeStyle=orthogonalEdgeStyle;rounded=0;orthogonalLoop=1;jettySize=auto;html=1;exitX=1;exitY=0.5;exitDx=0;exitDy=0;entryX=0;entryY=0.5;entryDx=0;entryDy=0;" parent="GSYnNAoyOlq5wy5UmiM3-1" source="bLPFvPyTOIOqSBMOL_Vs-15" target="z_Tj6OgZlOPkTaH6N6N_-7" edge="1">
                    <mxGeometry relative="1" as="geometry"/>
                </mxCell>
                <mxCell id="AoUdtBYS1rWbbObA7mXE-13" style="edgeStyle=orthogonalEdgeStyle;rounded=0;orthogonalLoop=1;jettySize=auto;html=1;exitX=1;exitY=0.5;exitDx=0;exitDy=0;entryX=0;entryY=0.5;entryDx=0;entryDy=0;" parent="GSYnNAoyOlq5wy5UmiM3-1" source="bLPFvPyTOIOqSBMOL_Vs-1" target="z_Tj6OgZlOPkTaH6N6N_-4" edge="1">
                    <mxGeometry relative="1" as="geometry"/>
                </mxCell>
            </root>
        </mxGraphModel>
    </diagram>
    <diagram id="IV8BZtOtjq7JTxnRTCkY" name="API Design">
        <mxGraphModel dx="1146" dy="628" grid="1" gridSize="10" guides="1" tooltips="1" connect="1" arrows="1" fold="1" page="1" pageScale="1" pageWidth="850" pageHeight="1100" math="0" shadow="0">
            <root>
                <mxCell id="t-oKYgvNfWypMyWQzkGX-0"/>
                <mxCell id="t-oKYgvNfWypMyWQzkGX-1" parent="t-oKYgvNfWypMyWQzkGX-0"/>
                <mxCell id="UVgz49NFjymvO_6FtgTs-0" value="" style="shape=image;verticalLabelPosition=bottom;labelBackgroundColor=#ffffff;verticalAlign=top;aspect=fixed;imageAspect=0;image=https://cdn-images.visual-paradigm.com/features/v15/visual-api-designer/01-visual-rest-api-designer.png;" parent="t-oKYgvNfWypMyWQzkGX-1" vertex="1">
                    <mxGeometry x="13" y="320" width="836.99" height="470" as="geometry"/>
                </mxCell>
            </root>
        </mxGraphModel>
    </diagram>
    <diagram id="PmMicgvxps0Ch-mxBJTw" name="UML Class Diagram">
        <mxGraphModel dx="1107" dy="902" grid="1" gridSize="10" guides="1" tooltips="1" connect="1" arrows="1" fold="1" page="1" pageScale="1" pageWidth="850" pageHeight="1100" math="0" shadow="0">
            <root>
                <mxCell id="wJPPkQ3ZxtXy3EOFBDS9-0"/>
                <mxCell id="wJPPkQ3ZxtXy3EOFBDS9-1" parent="wJPPkQ3ZxtXy3EOFBDS9-0"/>
                <mxCell id="wJPPkQ3ZxtXy3EOFBDS9-2" value="&lt;b&gt;Users&lt;/b&gt;" style="swimlane;fontStyle=0;align=center;verticalAlign=top;childLayout=stackLayout;horizontal=1;startSize=30;horizontalStack=0;resizeParent=1;resizeParentMax=0;resizeLast=0;collapsible=0;marginBottom=0;html=1;" parent="wJPPkQ3ZxtXy3EOFBDS9-1" vertex="1">
                    <mxGeometry x="20" y="22" width="250" height="298" as="geometry"/>
                </mxCell>
                <mxCell id="wJPPkQ3ZxtXy3EOFBDS9-3" value="attributes" style="text;html=1;strokeColor=none;fillColor=none;align=center;verticalAlign=middle;spacingLeft=4;spacingRight=4;overflow=hidden;rotatable=0;points=[[0,0.5],[1,0.5]];portConstraint=eastwest;" parent="wJPPkQ3ZxtXy3EOFBDS9-2" vertex="1">
                    <mxGeometry y="30" width="250" height="20" as="geometry"/>
                </mxCell>
                <mxCell id="wJPPkQ3ZxtXy3EOFBDS9-11" value="- username: String" style="text;html=1;strokeColor=none;fillColor=none;align=left;verticalAlign=middle;spacingLeft=4;spacingRight=4;overflow=hidden;rotatable=0;points=[[0,0.5],[1,0.5]];portConstraint=eastwest;" parent="wJPPkQ3ZxtXy3EOFBDS9-2" vertex="1">
                    <mxGeometry y="50" width="250" height="20" as="geometry"/>
                </mxCell>
                <mxCell id="wJPPkQ3ZxtXy3EOFBDS9-4" value="- password: String" style="text;html=1;strokeColor=none;fillColor=none;align=left;verticalAlign=middle;spacingLeft=4;spacingRight=4;overflow=hidden;rotatable=0;points=[[0,0.5],[1,0.5]];portConstraint=eastwest;" parent="wJPPkQ3ZxtXy3EOFBDS9-2" vertex="1">
                    <mxGeometry y="70" width="250" height="20" as="geometry"/>
                </mxCell>
                <mxCell id="wJPPkQ3ZxtXy3EOFBDS9-12" value="- userID: int" style="text;html=1;strokeColor=none;fillColor=none;align=left;verticalAlign=middle;spacingLeft=4;spacingRight=4;overflow=hidden;rotatable=0;points=[[0,0.5],[1,0.5]];portConstraint=eastwest;" parent="wJPPkQ3ZxtXy3EOFBDS9-2" vertex="1">
                    <mxGeometry y="90" width="250" height="20" as="geometry"/>
                </mxCell>
                <mxCell id="3g6ZGk5gZSqbU-vfaFF0-1" value="- reputation: int" style="text;html=1;strokeColor=none;fillColor=none;align=left;verticalAlign=middle;spacingLeft=4;spacingRight=4;overflow=hidden;rotatable=0;points=[[0,0.5],[1,0.5]];portConstraint=eastwest;" parent="wJPPkQ3ZxtXy3EOFBDS9-2" vertex="1">
                    <mxGeometry y="110" width="250" height="20" as="geometry"/>
                </mxCell>
                <mxCell id="3g6ZGk5gZSqbU-vfaFF0-2" value="- verfied: boolean" style="text;html=1;strokeColor=none;fillColor=none;align=left;verticalAlign=middle;spacingLeft=4;spacingRight=4;overflow=hidden;rotatable=0;points=[[0,0.5],[1,0.5]];portConstraint=eastwest;" parent="wJPPkQ3ZxtXy3EOFBDS9-2" vertex="1">
                    <mxGeometry y="130" width="250" height="20" as="geometry"/>
                </mxCell>
                <mxCell id="wJPPkQ3ZxtXy3EOFBDS9-7" value="" style="line;strokeWidth=1;fillColor=none;align=left;verticalAlign=middle;spacingTop=-1;spacingLeft=3;spacingRight=3;rotatable=0;labelPosition=right;points=[];portConstraint=eastwest;" parent="wJPPkQ3ZxtXy3EOFBDS9-2" vertex="1">
                    <mxGeometry y="150" width="250" height="8" as="geometry"/>
                </mxCell>
                <mxCell id="wJPPkQ3ZxtXy3EOFBDS9-8" value="methods" style="text;html=1;strokeColor=none;fillColor=none;align=center;verticalAlign=middle;spacingLeft=4;spacingRight=4;overflow=hidden;rotatable=0;points=[[0,0.5],[1,0.5]];portConstraint=eastwest;" parent="wJPPkQ3ZxtXy3EOFBDS9-2" vertex="1">
                    <mxGeometry y="158" width="250" height="20" as="geometry"/>
                </mxCell>
                <mxCell id="WKpmgb3bXwlJErCYO8iE-0" value="+ viewUpvoted(): Posts" style="text;html=1;strokeColor=none;fillColor=none;align=left;verticalAlign=middle;spacingLeft=4;spacingRight=4;overflow=hidden;rotatable=0;points=[[0,0.5],[1,0.5]];portConstraint=eastwest;" parent="wJPPkQ3ZxtXy3EOFBDS9-2" vertex="1">
                    <mxGeometry y="178" width="250" height="20" as="geometry"/>
                </mxCell>
                <mxCell id="3g6ZGk5gZSqbU-vfaFF0-0" value="+ viewDownvoted(): Posts" style="text;html=1;strokeColor=none;fillColor=none;align=left;verticalAlign=middle;spacingLeft=4;spacingRight=4;overflow=hidden;rotatable=0;points=[[0,0.5],[1,0.5]];portConstraint=eastwest;" parent="wJPPkQ3ZxtXy3EOFBDS9-2" vertex="1">
                    <mxGeometry y="198" width="250" height="20" as="geometry"/>
                </mxCell>
                <mxCell id="t0tcn6FcylgzUwfnSHU5-0" value="+ viewInfo(): String" style="text;html=1;strokeColor=none;fillColor=none;align=left;verticalAlign=middle;spacingLeft=4;spacingRight=4;overflow=hidden;rotatable=0;points=[[0,0.5],[1,0.5]];portConstraint=eastwest;" parent="wJPPkQ3ZxtXy3EOFBDS9-2" vertex="1">
                    <mxGeometry y="218" width="250" height="20" as="geometry"/>
                </mxCell>
                <mxCell id="t0tcn6FcylgzUwfnSHU5-1" value="+!! userPosts(): Posts" style="text;html=1;strokeColor=none;fillColor=none;align=left;verticalAlign=middle;spacingLeft=4;spacingRight=4;overflow=hidden;rotatable=0;points=[[0,0.5],[1,0.5]];portConstraint=eastwest;" parent="wJPPkQ3ZxtXy3EOFBDS9-2" vertex="1">
                    <mxGeometry y="238" width="250" height="20" as="geometry"/>
                </mxCell>
                <mxCell id="t0tcn6FcylgzUwfnSHU5-2" value="+!! userComments(): Comments" style="text;html=1;strokeColor=none;fillColor=none;align=left;verticalAlign=middle;spacingLeft=4;spacingRight=4;overflow=hidden;rotatable=0;points=[[0,0.5],[1,0.5]];portConstraint=eastwest;" parent="wJPPkQ3ZxtXy3EOFBDS9-2" vertex="1">
                    <mxGeometry y="258" width="250" height="20" as="geometry"/>
                </mxCell>
                <mxCell id="t0tcn6FcylgzUwfnSHU5-3" value="+ accessors methods" style="text;html=1;strokeColor=none;fillColor=none;align=left;verticalAlign=middle;spacingLeft=4;spacingRight=4;overflow=hidden;rotatable=0;points=[[0,0.5],[1,0.5]];portConstraint=eastwest;" parent="wJPPkQ3ZxtXy3EOFBDS9-2" vertex="1">
                    <mxGeometry y="278" width="250" height="20" as="geometry"/>
                </mxCell>
                <mxCell id="GBRfNCN3ggMMUqHVpLTs-0" value="https://data.stackexchange.com/stackoverflow/query/new" style="text;html=1;align=center;verticalAlign=middle;resizable=0;points=[];autosize=1;strokeColor=none;fillColor=none;" parent="wJPPkQ3ZxtXy3EOFBDS9-1" vertex="1">
                    <mxGeometry x="160" y="750" width="320" height="20" as="geometry"/>
                </mxCell>
                <mxCell id="fWPjd-HNfMZrWF5wsA1X-0" value="&lt;b&gt;Posts&lt;/b&gt;" style="swimlane;fontStyle=0;align=center;verticalAlign=top;childLayout=stackLayout;horizontal=1;startSize=30;horizontalStack=0;resizeParent=1;resizeParentMax=0;resizeLast=0;collapsible=0;marginBottom=0;html=1;" parent="wJPPkQ3ZxtXy3EOFBDS9-1" vertex="1">
                    <mxGeometry x="350" y="22" width="250" height="278" as="geometry"/>
                </mxCell>
                <mxCell id="fWPjd-HNfMZrWF5wsA1X-1" value="attributes" style="text;html=1;strokeColor=none;fillColor=none;align=center;verticalAlign=middle;spacingLeft=4;spacingRight=4;overflow=hidden;rotatable=0;points=[[0,0.5],[1,0.5]];portConstraint=eastwest;" parent="fWPjd-HNfMZrWF5wsA1X-0" vertex="1">
                    <mxGeometry y="30" width="250" height="20" as="geometry"/>
                </mxCell>
                <mxCell id="fWPjd-HNfMZrWF5wsA1X-2" value="- postID: int" style="text;html=1;strokeColor=none;fillColor=none;align=left;verticalAlign=middle;spacingLeft=4;spacingRight=4;overflow=hidden;rotatable=0;points=[[0,0.5],[1,0.5]];portConstraint=eastwest;" parent="fWPjd-HNfMZrWF5wsA1X-0" vertex="1">
                    <mxGeometry y="50" width="250" height="20" as="geometry"/>
                </mxCell>
                <mxCell id="fWPjd-HNfMZrWF5wsA1X-3" value="- password: String" style="text;html=1;strokeColor=none;fillColor=none;align=left;verticalAlign=middle;spacingLeft=4;spacingRight=4;overflow=hidden;rotatable=0;points=[[0,0.5],[1,0.5]];portConstraint=eastwest;" parent="fWPjd-HNfMZrWF5wsA1X-0" vertex="1">
                    <mxGeometry y="70" width="250" height="20" as="geometry"/>
                </mxCell>
                <mxCell id="fWPjd-HNfMZrWF5wsA1X-5" value="- reputation: int" style="text;html=1;strokeColor=none;fillColor=none;align=left;verticalAlign=middle;spacingLeft=4;spacingRight=4;overflow=hidden;rotatable=0;points=[[0,0.5],[1,0.5]];portConstraint=eastwest;" parent="fWPjd-HNfMZrWF5wsA1X-0" vertex="1">
                    <mxGeometry y="90" width="250" height="20" as="geometry"/>
                </mxCell>
                <mxCell id="fWPjd-HNfMZrWF5wsA1X-6" value="- verfied: boolean" style="text;html=1;strokeColor=none;fillColor=none;align=left;verticalAlign=middle;spacingLeft=4;spacingRight=4;overflow=hidden;rotatable=0;points=[[0,0.5],[1,0.5]];portConstraint=eastwest;" parent="fWPjd-HNfMZrWF5wsA1X-0" vertex="1">
                    <mxGeometry y="110" width="250" height="20" as="geometry"/>
                </mxCell>
                <mxCell id="fWPjd-HNfMZrWF5wsA1X-7" value="" style="line;strokeWidth=1;fillColor=none;align=left;verticalAlign=middle;spacingTop=-1;spacingLeft=3;spacingRight=3;rotatable=0;labelPosition=right;points=[];portConstraint=eastwest;" parent="fWPjd-HNfMZrWF5wsA1X-0" vertex="1">
                    <mxGeometry y="130" width="250" height="8" as="geometry"/>
                </mxCell>
                <mxCell id="fWPjd-HNfMZrWF5wsA1X-8" value="methods" style="text;html=1;strokeColor=none;fillColor=none;align=center;verticalAlign=middle;spacingLeft=4;spacingRight=4;overflow=hidden;rotatable=0;points=[[0,0.5],[1,0.5]];portConstraint=eastwest;" parent="fWPjd-HNfMZrWF5wsA1X-0" vertex="1">
                    <mxGeometry y="138" width="250" height="20" as="geometry"/>
                </mxCell>
                <mxCell id="fWPjd-HNfMZrWF5wsA1X-9" value="+ viewUpvoted(): Posts" style="text;html=1;strokeColor=none;fillColor=none;align=left;verticalAlign=middle;spacingLeft=4;spacingRight=4;overflow=hidden;rotatable=0;points=[[0,0.5],[1,0.5]];portConstraint=eastwest;" parent="fWPjd-HNfMZrWF5wsA1X-0" vertex="1">
                    <mxGeometry y="158" width="250" height="20" as="geometry"/>
                </mxCell>
                <mxCell id="fWPjd-HNfMZrWF5wsA1X-10" value="+ viewDownvoted(): Posts" style="text;html=1;strokeColor=none;fillColor=none;align=left;verticalAlign=middle;spacingLeft=4;spacingRight=4;overflow=hidden;rotatable=0;points=[[0,0.5],[1,0.5]];portConstraint=eastwest;" parent="fWPjd-HNfMZrWF5wsA1X-0" vertex="1">
                    <mxGeometry y="178" width="250" height="20" as="geometry"/>
                </mxCell>
                <mxCell id="fWPjd-HNfMZrWF5wsA1X-11" value="+ viewInfo(): String" style="text;html=1;strokeColor=none;fillColor=none;align=left;verticalAlign=middle;spacingLeft=4;spacingRight=4;overflow=hidden;rotatable=0;points=[[0,0.5],[1,0.5]];portConstraint=eastwest;" parent="fWPjd-HNfMZrWF5wsA1X-0" vertex="1">
                    <mxGeometry y="198" width="250" height="20" as="geometry"/>
                </mxCell>
                <mxCell id="fWPjd-HNfMZrWF5wsA1X-12" value="+!! userPosts(): Posts" style="text;html=1;strokeColor=none;fillColor=none;align=left;verticalAlign=middle;spacingLeft=4;spacingRight=4;overflow=hidden;rotatable=0;points=[[0,0.5],[1,0.5]];portConstraint=eastwest;" parent="fWPjd-HNfMZrWF5wsA1X-0" vertex="1">
                    <mxGeometry y="218" width="250" height="20" as="geometry"/>
                </mxCell>
                <mxCell id="fWPjd-HNfMZrWF5wsA1X-13" value="+!! userComments(): Comments" style="text;html=1;strokeColor=none;fillColor=none;align=left;verticalAlign=middle;spacingLeft=4;spacingRight=4;overflow=hidden;rotatable=0;points=[[0,0.5],[1,0.5]];portConstraint=eastwest;" parent="fWPjd-HNfMZrWF5wsA1X-0" vertex="1">
                    <mxGeometry y="238" width="250" height="20" as="geometry"/>
                </mxCell>
                <mxCell id="fWPjd-HNfMZrWF5wsA1X-14" value="+ accessors methods" style="text;html=1;strokeColor=none;fillColor=none;align=left;verticalAlign=middle;spacingLeft=4;spacingRight=4;overflow=hidden;rotatable=0;points=[[0,0.5],[1,0.5]];portConstraint=eastwest;" parent="fWPjd-HNfMZrWF5wsA1X-0" vertex="1">
                    <mxGeometry y="258" width="250" height="20" as="geometry"/>
                </mxCell>
            </root>
        </mxGraphModel>
    </diagram>
</mxfile>